REM DIRINDEX 1\3,1\2\4,1\2\5,1\2\6
REM DIRNAME folder01,folder02,folder03,folder04,folder05,folder06
TITLE ""
FILE "124.mp3" MP3
  TRACK 01 AUDIO
    TITLE "4:cjc137_5127"
    INDEX 01 00:00:00
  TRACK 02 AUDIO
    TITLE "0:"
    INDEX 01 00:01:26
  TRACK 03 AUDIO
    TITLE "6:cjc137_5128"
    INDEX 01 00:01:32
  TRACK 04 AUDIO
    TITLE "0:"
    INDEX 01 00:02:69
  TRACK 05 AUDIO
    TITLE "5:cjc137_5129"
    INDEX 01 00:02:73
  TRACK 06 AUDIO
    TITLE "0:"
    INDEX 01 00:04:23
  TRACK 07 AUDIO
    TITLE "4:cjc137_5130"
    INDEX 01 00:05:30
  TRACK 08 AUDIO
    TITLE "0:"
    INDEX 01 00:06:67
  TRACK 09 AUDIO
    TITLE "6:cjc137_5131"
    INDEX 01 00:06:73
  TRACK 10 AUDIO
    TITLE "0:"
    INDEX 01 00:08:01
  TRACK 11 AUDIO
    TITLE "5:cjc137_5132"
    INDEX 01 00:08:05
  TRACK 12 AUDIO
    TITLE "0:"
    INDEX 01 00:09:42
  TRACK 13 AUDIO
    TITLE "4:cjc137_5133"
    INDEX 01 00:10:49
  TRACK 14 AUDIO
    TITLE "0:"
    INDEX 01 00:11:58
  TRACK 15 AUDIO
    TITLE "6:cjc137_5134"
    INDEX 01 00:11:64
  TRACK 16 AUDIO
    TITLE "0:"
    INDEX 01 00:13:00
  TRACK 17 AUDIO
    TITLE "5:cjc137_5135"
    INDEX 01 00:13:04
  TRACK 18 AUDIO
    TITLE "0:"
    INDEX 01 00:14:13
  TRACK 19 AUDIO
    TITLE "4:cjc137_5136"
    INDEX 01 00:15:21
  TRACK 20 AUDIO
    TITLE "0:"
    INDEX 01 00:16:44
  TRACK 21 AUDIO
    TITLE "6:cjc137_5137"
    INDEX 01 00:16:51
  TRACK 22 AUDIO
    TITLE "0:"
    INDEX 01 00:17:51
  TRACK 23 AUDIO
    TITLE "5:cjc137_5138"
    INDEX 01 00:17:55
  TRACK 24 AUDIO
    TITLE "0:"
    INDEX 01 00:19:05
  TRACK 25 AUDIO
    TITLE "4:cjc137_5139"
    INDEX 01 00:20:12
  TRACK 26 AUDIO
    TITLE "0:"
    INDEX 01 00:21:33
  TRACK 27 AUDIO
    TITLE "6:cjc137_5140"
    INDEX 01 00:21:39
  TRACK 28 AUDIO
    TITLE "0:"
    INDEX 01 00:22:42
  TRACK 29 AUDIO
    TITLE "5:cjc137_5141"
    INDEX 01 00:22:46
  TRACK 30 AUDIO
    TITLE "0:"
    INDEX 01 00:23:67
  TRACK 31 AUDIO
    TITLE "4:cjc137_5142"
    INDEX 01 00:24:74
  TRACK 32 AUDIO
    TITLE "0:"
    INDEX 01 00:26:05
  TRACK 33 AUDIO
    TITLE "6:cjc137_5143"
    INDEX 01 00:26:13
  TRACK 34 AUDIO
    TITLE "0:"
    INDEX 01 00:27:10
  TRACK 35 AUDIO
    TITLE "5:cjc137_5144"
    INDEX 01 00:27:12
  TRACK 36 AUDIO
    TITLE "0:"
    INDEX 01 00:28:19
  TRACK 37 AUDIO
    TITLE "4:cjc137_5145"
    INDEX 01 00:29:27
  TRACK 38 AUDIO
    TITLE "0:"
    INDEX 01 00:30:54
  TRACK 39 AUDIO
    TITLE "6:cjc137_5146"
    INDEX 01 00:30:57
  TRACK 40 AUDIO
    TITLE "0:"
    INDEX 01 00:31:57
  TRACK 41 AUDIO
    TITLE "5:cjc137_5147"
    INDEX 01 00:31:65
  TRACK 42 AUDIO
    TITLE "0:"
    INDEX 01 00:33:15
  TRACK 43 AUDIO
    TITLE "4:cjc137_5148"
    INDEX 01 00:34:24
  TRACK 44 AUDIO
    TITLE "0:"
    INDEX 01 00:35:35
  TRACK 45 AUDIO
    TITLE "6:cjc137_5149"
    INDEX 01 00:35:41
  TRACK 46 AUDIO
    TITLE "0:"
    INDEX 01 00:36:64
  TRACK 47 AUDIO
    TITLE "5:cjc137_5150"
    INDEX 01 00:36:68
  TRACK 48 AUDIO
    TITLE "0:"
    INDEX 01 00:38:04
  TRACK 49 AUDIO
    TITLE "4:cjc137_5151"
    INDEX 01 00:39:11
  TRACK 50 AUDIO
    TITLE "0:"
    INDEX 01 00:40:34
  TRACK 51 AUDIO
    TITLE "6:cjc137_5152"
    INDEX 01 00:40:38
  TRACK 52 AUDIO
    TITLE "0:"
    INDEX 01 00:41:63
  TRACK 53 AUDIO
    TITLE "5:cjc137_5153"
    INDEX 01 00:41:69
  TRACK 54 AUDIO
    TITLE "0:"
    INDEX 01 00:43:17
  TRACK 55 AUDIO
    TITLE "4:cjc137_5154"
    INDEX 01 00:44:24
  TRACK 56 AUDIO
    TITLE "0:"
    INDEX 01 00:45:37
  TRACK 57 AUDIO
    TITLE "6:cjc137_5155"
    INDEX 01 00:45:51
  TRACK 58 AUDIO
    TITLE "0:"
    INDEX 01 00:46:47
  TRACK 59 AUDIO
    TITLE "5:cjc137_5156"
    INDEX 01 00:46:54
  TRACK 60 AUDIO
    TITLE "0:"
    INDEX 01 00:47:68
  TRACK 61 AUDIO
    TITLE "4:cjc137_5157"
    INDEX 01 00:49:10
  TRACK 62 AUDIO
    TITLE "0:"
    INDEX 01 00:50:11
  TRACK 63 AUDIO
    TITLE "6:cjc137_5158"
    INDEX 01 00:50:21
  TRACK 64 AUDIO
    TITLE "0:"
    INDEX 01 00:51:34
  TRACK 65 AUDIO
    TITLE "5:cjc137_5159"
    INDEX 01 00:51:42
  TRACK 66 AUDIO
    TITLE "0:"
    INDEX 01 00:52:43
  TRACK 67 AUDIO
    TITLE "4:cjc137_5160"
    INDEX 01 00:53:55
  TRACK 68 AUDIO
    TITLE "0:"
    INDEX 01 00:54:72
  TRACK 69 AUDIO
    TITLE "6:cjc137_5161"
    INDEX 01 00:55:04
  TRACK 70 AUDIO
    TITLE "0:"
    INDEX 01 00:56:06
  TRACK 71 AUDIO
    TITLE "5:cjc137_5162"
    INDEX 01 00:56:10
  TRACK 72 AUDIO
    TITLE "0:"
    INDEX 01 00:57:29
  TRACK 73 AUDIO
    TITLE "4:cjc137_5163"
    INDEX 01 00:58:38
  TRACK 74 AUDIO
    TITLE "0:"
    INDEX 01 00:59:69
  TRACK 75 AUDIO
    TITLE "6:cjc137_5164"
    INDEX 01 01:00:00
  TRACK 76 AUDIO
    TITLE "0:"
    INDEX 01 01:00:72
  TRACK 77 AUDIO
    TITLE "5:cjc137_5165"
    INDEX 01 01:01:05
  TRACK 78 AUDIO
    TITLE "0:"
    INDEX 01 01:02:38
  TRACK 79 AUDIO
    TITLE "4:cjc137_5166"
    INDEX 01 01:03:45
  TRACK 80 AUDIO
    TITLE "0:"
    INDEX 01 01:04:60
  TRACK 81 AUDIO
    TITLE "6:cjc137_5167"
    INDEX 01 01:04:66
  TRACK 82 AUDIO
    TITLE "0:"
    INDEX 01 01:06:22
  TRACK 83 AUDIO
    TITLE "5:cjc137_5168"
    INDEX 01 01:06:28
  TRACK 84 AUDIO
    TITLE "0:"
    INDEX 01 01:07:45
